# xmcd CD database file generated by Grip 3.3.1
# 
# Track frame offsets:
#       150
#       17046
#       29835
#       40432
#       58583
#       73972
#       88334
#       93805
#       116517
#       120916
#       124605
#       134076
#       153933
#       176449
#       187246
#       205737
#       216284
#       221740
#       236302
#       256938
#       260315
#       266566
#       284285
#       289257
#       302833
#       308090
# 
# Disc length: 4337 seconds
# 
# Revision: 2
# Processed by: cddbd v1.5.2PL0 Copyright (c) Steve Scherf et al.
# Submitted via: Grip 3.3.1
# 
DISCID=8c10ef1a
DTITLE=Various Artist - Natural Born Killers (Soundtrack)
DYEAR=1900
DGENRE=Soundtrack
TTITLE0=Leonard Cohen - Waiting For The Miracle
TTITLE1=L7 - Shitlist
TTITLE2=Dan Zanes - Moon Over Greene County
TTITLE3=Patti Smith - Rock n Roll Nigger
TTITLE4=Cowboy Junkies - Sweet Jane
TTITLE5=Bob Dylan - You Belong To Me
TTITLE6=Duane Eddy - The Trembler
TTITLE7=Nine Inch Nails - Burn
TTITLE8=Brian Berdan, Robert Downey Jr - Route 666
TTITLE9=Remmy Ongala - Totally Hot
TTITLE10=Patsy Cline - Back In Baby's Arms
TTITLE11=Peter Gabriel - Nusrat Fateh Ali Khan - Taboo
TTITLE12=Janes Addiction - Sex Is Violent
TTITLE13=A.O.S. - History (Repeats Itself)
TTITLE14=Nine Inch Nails - Something I Can Never Have
TTITLE15=Russell Means - I Will Take You Home
TTITLE16=Hollywood Persuaders - Drums A Go-Go
TTITLE17=Barry Adamson - Hungry Ants
TTITLE18=Dr. Dre - The Day the Niggaz Took Over
TTITLE19=Juliette Lewis - Born Bad
TTITLE20=Sergio Cervetti - Fall Of The Rebel Angels
TTITLE21=Lard - Forkboy
TTITLE22=Budapest Philharmonic - Batonga In Batongaville
TTITLE23=Nine Inch Nails - A Warm Place
TTITLE24=Nusrat Fateh Ali Khan and Party - Allah, Mohammed, Char, Yaar
TTITLE25=Leonard Cohen - The Future
EXTD=
EXTT0=
EXTT1=
EXTT2=
EXTT3=
EXTT4=
EXTT5=
EXTT6=
EXTT7=
EXTT8=
EXTT9=
EXTT10=
EXTT11=
EXTT12=
EXTT13=
EXTT14=
EXTT15=
EXTT16=
EXTT17=
EXTT18=
EXTT19=
EXTT20=
EXTT21=
EXTT22=
EXTT23=
EXTT24=
EXTT25=
PLAYORDER=
